<?xml version="1.0" encoding="UTF-8" standalone="no"?>
<!-- Created with Inkscape (http://www.inkscape.org/) -->

<svg
   xmlns:osb="http://www.openswatchbook.org/uri/2009/osb"
   xmlns:dc="http://purl.org/dc/elements/1.1/"
   xmlns:cc="http://creativecommons.org/ns#"
   xmlns:rdf="http://www.w3.org/1999/02/22-rdf-syntax-ns#"
   xmlns:svg="http://www.w3.org/2000/svg"
   xmlns="http://www.w3.org/2000/svg"
   xmlns:xlink="http://www.w3.org/1999/xlink"
   xmlns:sodipodi="http://sodipodi.sourceforge.net/DTD/sodipodi-0.dtd"
   xmlns:inkscape="http://www.inkscape.org/namespaces/inkscape"
   width="64px"
   height="64px"
   id="svg2985"
   version="1.1"
   inkscape:version="0.48.5 r10040"
   sodipodi:docname="cup1.svg"
   inkscape:export-filename="C:\Users\skamaraj\Documents\GitHub\Dictation\www\img\cup1.png"
   inkscape:export-xdpi="90"
   inkscape:export-ydpi="90">
  <defs
     id="defs2987">
    <linearGradient
       id="linearGradient5244"
       osb:paint="solid">
      <stop
         style="stop-color:#000000;stop-opacity:1;"
         offset="0"
         id="stop5246" />
    </linearGradient>
    <linearGradient
       inkscape:collect="always"
       xlink:href="#linearGradient5244"
       id="linearGradient5408"
       gradientUnits="userSpaceOnUse"
       x1="6.0379379"
       y1="46.563453"
       x2="65.125076"
       y2="76.909462" />
  </defs>
  <sodipodi:namedview
     id="base"
     pagecolor="#ffffff"
     bordercolor="#666666"
     borderopacity="1.0"
     inkscape:pageopacity="0.0"
     inkscape:pageshadow="2"
     inkscape:zoom="10.133209"
     inkscape:cx="44.452223"
     inkscape:cy="29.207258"
     inkscape:current-layer="layer2"
     showgrid="true"
     inkscape:document-units="px"
     inkscape:grid-bbox="true"
     inkscape:window-width="1920"
     inkscape:window-height="1003"
     inkscape:window-x="-9"
     inkscape:window-y="-9"
     inkscape:window-maximized="1" />
  <metadata
     id="metadata2990">
    <rdf:RDF>
      <cc:Work
         rdf:about="">
        <dc:format>image/svg+xml</dc:format>
        <dc:type
           rdf:resource="http://purl.org/dc/dcmitype/StillImage" />
        <dc:title></dc:title>
      </cc:Work>
    </rdf:RDF>
  </metadata>
  <g
     id="layer1"
     inkscape:label="Layer 1"
     inkscape:groupmode="layer"
     style="display:inline">
    <path
       sodipodi:type="arc"
       style="fill:#00c5ff;fill-opacity:1;fill-rule:evenodd"
       id="path2993"
       sodipodi:cx="32.08374"
       sodipodi:cy="32.013634"
       sodipodi:rx="32.18111"
       sodipodi:ry="31.986368"
       d="m 64.264851,32.013634 a 32.18111,31.986368 0 1 1 -64.36222115,0 32.18111,31.986368 0 1 1 64.36222115,0 z"
       transform="matrix(0.98672373,-0.16240774,0.16240774,0.98672373,-4.7733096,5.6356693)" />
  </g>
  <g
     inkscape:groupmode="layer"
     id="layer2"
     inkscape:label="Layer">
    <text
       xml:space="preserve"
       style="font-size:56.19616318px;font-style:normal;font-variant:normal;font-weight:bold;font-stretch:normal;line-height:125%;letter-spacing:0px;word-spacing:0px;fill:url(#linearGradient5408);fill-opacity:1;stroke:none;font-family:Arial;-inkscape-font-specification:Arial Bold"
       x="5.9737124"
       y="53.178677"
       id="text3000"
       sodipodi:linespacing="125%"
       transform="matrix(0.90981347,-0.57904251,0,1.0991264,0,0)"><tspan
         sodipodi:role="line"
         id="tspan3002"
         x="5.9737124"
         y="53.178677"
         style="font-size:18.79053688px;fill:url(#linearGradient5408);fill-opacity:1" /></text>
    <path
       id="path5426"
       d="m 22.11058,31.638895 q -1.95673,-4.5 -1.95673,-10.30556 h -6.76923 v 2.66667 q 0,2.16666 2.49879,4.5 2.4988,2.33333 6.22717,3.13889 z m 28.5048,-7.63889 v -2.66667 h -6.76923 q 0,5.80556 -1.95673,10.30556 3.72837,-0.80556 6.22717,-3.13889 2.49879,-2.33334 2.49879,-4.5 z M 54,20.444445 v 3.55556 q 0,1.97222 -1.09736,3.97222 -1.09735,2 -2.96153,3.61111 -1.86419,1.61111 -4.57452,2.70833 -2.71034,1.09723 -5.69832,1.23611 -1.11058,1.5 -2.51202,2.63889 -1.00481,0.94445 -1.38822,2.01389 -0.38341,1.06945 -0.38341,2.48611 0,1.5 0.80649,2.52778 0.80649,1.02778 2.57812,1.02778 1.98317,0 3.53005,1.26389 1.54687,1.26389 1.54687,3.18055 v 1.77778 q 0,0.38889 -0.23798,0.63889 -0.23798,0.25 -0.60817,0.25 H 21 q -0.37019,0 -0.60817,-0.25 -0.23798,-0.25 -0.23798,-0.63889 v -1.77778 q 0,-1.91666 1.54687,-3.18055 1.54688,-1.26389 3.53005,-1.26389 1.77163,0 2.57812,-1.02778 0.80649,-1.02778 0.80649,-2.52778 0,-1.41666 -0.38341,-2.48611 -0.38341,-1.06944 -1.38822,-2.01389 -1.40144,-1.13889 -2.51202,-2.63889 -2.98798,-0.13888 -5.69832,-1.23611 -2.71033,-1.09722 -4.57452,-2.70833 -1.86418,-1.61111 -2.96153,-3.61111 Q 10,25.972225 10,24.000005 v -3.55556 q 0,-1.11111 0.74038,-1.88889 0.74039,-0.77778 1.79808,-0.77778 h 7.61539 v -2.66666 q 0,-1.83334 1.24278,-3.13889 1.24279,-1.30556 2.98799,-1.30556 h 15.23076 q 1.7452,0 2.98799,1.30556 1.24278,1.30555 1.24278,3.13889 v 2.66666 h 7.61539 q 1.05769,0 1.79808,0.77778 Q 54,19.333335 54,20.444445 z"
       inkscape:connector-curvature="0" />
  </g>
</svg>
